<svg width="522" height="74" viewBox="0 0 522 74" fill="none" xmlns="http://www.w3.org/2000/svg">
<path d="M14.2 1.9V71.9H7.7V1.9H14.2ZM36.9 35.9V38.9H13.9V35.9H36.9ZM41.2 1.9V5H13.9V1.9H41.2ZM36.9 38.7V45.3H35.9V43.8C35.9 42.4667 35.4333 41.3333 34.5 40.4C33.5667 39.4 32.4333 38.9 31.1 38.9V38.7H36.9ZM36.9 29.5V36.1H31.1V35.9C32.4333 35.8333 33.5667 35.3333 34.5 34.4C35.4333 33.4 35.9 32.2333 35.9 30.9V29.5H36.9ZM41.2 4.7V11.4H40.2V9.9C40.2 8.5667 39.7 7.4333 38.7 6.5C37.7667 5.5 36.6333 5 35.3 5V4.7H41.2ZM41.2 0.1V3L29 1.9C30.4667 1.9 32 1.8 33.6 1.6C35.2667 1.4 36.8 1.1667 38.2 0.9C39.6 0.6333 40.6 0.3667 41.2 0.1ZM8 64.6V71.9H0V70.9C0 70.9 0.2 70.9 0.6 70.9C1.06667 70.9 1.3 70.9 1.3 70.9C3.03333 70.9 4.5 70.3 5.7 69.1C6.9667 67.8333 7.6333 66.3333 7.7 64.6H8ZM8 9.2H7.7C7.7 7.4667 7.0667 6 5.8 4.8C4.5333 3.5333 3.03333 2.9 1.3 2.9C1.3 2.9 1.1 2.9 0.7 2.9C0.3 2.9 0.0999999 2.9 0.0999999 2.9L0 1.9H8V9.2ZM13.9 64.6H14.2C14.2667 66.3333 14.9 67.8333 16.1 69.1C17.3667 70.3 18.8667 70.9 20.6 70.9C20.6 70.9 20.8 70.9 21.2 70.9C21.6 70.9 21.8333 70.9 21.9 70.9V71.9H13.9V64.6ZM68.3016 1.9V71.9H61.8016V1.9H68.3016ZM62.1016 64.6V71.9H54.1016V70.9C54.1016 70.9 54.3016 70.9 54.7016 70.9C55.1682 70.9 55.4016 70.9 55.4016 70.9C57.1349 70.9 58.6016 70.3 59.8016 69.1C61.0682 67.8333 61.7349 66.3333 61.8016 64.6H62.1016ZM62.1016 9.2H61.8016C61.7349 7.4667 61.0682 6 59.8016 4.8C58.6016 3.5333 57.1349 2.9 55.4016 2.9C55.4016 2.9 55.1682 2.9 54.7016 2.9C54.3016 2.9 54.1016 2.9 54.1016 2.9V1.9H62.1016V9.2ZM68.0016 64.6H68.3016C68.3682 66.3333 69.0016 67.8333 70.2016 69.1C71.4682 70.3 72.9682 70.9 74.7016 70.9C74.7016 70.9 74.9016 70.9 75.3016 70.9C75.7016 70.9 75.9349 70.9 76.0016 70.9V71.9H68.0016V64.6ZM68.0016 9.2V1.9H76.0016V2.9C75.9349 2.9 75.7016 2.9 75.3016 2.9C74.9016 2.9 74.7016 2.9 74.7016 2.9C72.9682 2.9 71.4682 3.5333 70.2016 4.8C69.0016 6 68.3682 7.4667 68.3016 9.2H68.0016ZM102.091 1.9V71.9H95.591V1.9H102.091ZM124.791 35.9V38.9H101.791V35.9H124.791ZM129.091 1.9V5H101.791V1.9H129.091ZM124.791 38.7V45.3H123.791V43.8C123.791 42.4667 123.324 41.3333 122.391 40.4C121.457 39.4 120.324 38.9 118.991 38.9V38.7H124.791ZM124.791 29.5V36.1H118.991V35.9C120.324 35.8333 121.457 35.3333 122.391 34.4C123.324 33.4 123.791 32.2333 123.791 30.9V29.5H124.791ZM129.091 4.7V11.4H128.091V9.9C128.091 8.5667 127.591 7.4333 126.591 6.5C125.657 5.5 124.524 5 123.191 5V4.7H129.091ZM129.091 0.1V3L116.891 1.9C118.357 1.9 119.891 1.8 121.491 1.6C123.157 1.4 124.691 1.1667 126.091 0.9C127.491 0.6333 128.491 0.3667 129.091 0.1ZM95.891 64.6V71.9H87.8906V70.9C87.8906 70.9 88.0906 70.9 88.4906 70.9C88.9573 70.9 89.1906 70.9 89.1906 70.9C90.924 70.9 92.3906 70.3 93.5906 69.1C94.857 67.8333 95.524 66.3333 95.591 64.6H95.891ZM95.891 9.2H95.591C95.591 7.4667 94.957 6 93.6906 4.8C92.424 3.5333 90.924 2.9 89.1906 2.9C89.1906 2.9 88.9906 2.9 88.5906 2.9C88.1906 2.9 87.9906 2.9 87.9906 2.9L87.8906 1.9H95.891V9.2ZM101.791 64.6H102.091C102.157 66.3333 102.791 67.8333 103.991 69.1C105.257 70.3 106.757 70.9 108.491 70.9C108.491 70.9 108.691 70.9 109.091 70.9C109.491 70.9 109.724 70.9 109.791 70.9V71.9H101.791V64.6ZM170.192 2.2V71.9H163.692V2.2H170.192ZM195.892 1.8V4.8H137.992V1.8H195.892ZM195.892 4.5V12.6L194.892 12.5V10.8C194.892 9.1333 194.292 7.7333 193.092 6.6C191.959 5.4667 190.592 4.8667 188.992 4.8V4.5H195.892ZM195.892 0V2.9L183.692 1.8C185.159 1.8 186.692 1.7 188.292 1.5C189.959 1.3 191.492 1.0667 192.892 0.799999C194.292 0.533299 195.292 0.2667 195.892 0ZM163.992 64.6V71.9H155.992V70.9C155.992 70.9 156.192 70.9 156.592 70.9C157.059 70.9 157.292 70.9 157.292 70.9C159.026 70.9 160.492 70.3 161.692 69.1C162.959 67.8333 163.626 66.3333 163.692 64.6H163.992ZM169.892 64.6H170.192C170.259 66.3333 170.892 67.8333 172.092 69.1C173.359 70.3 174.859 70.9 176.592 70.9C176.592 70.9 176.792 70.9 177.192 70.9C177.659 70.9 177.892 70.9 177.892 70.9V71.9H169.892V64.6ZM144.892 4.5V4.8C143.226 4.8667 141.826 5.4667 140.692 6.6C139.559 7.7333 138.992 9.1333 138.992 10.8V12.5L137.992 12.6V4.5H144.892ZM137.992 0C138.659 0.2667 139.659 0.533299 140.992 0.799999C142.392 1.0667 143.926 1.3 145.592 1.5C147.259 1.7 148.792 1.8 150.192 1.8L137.992 2.9V0ZM265.409 1.9V71.9H258.909V1.9H265.409ZM218.009 1.9V71.9H211.509V1.9H218.009ZM259.809 35.8V38.8H217.009V35.8H259.809ZM211.809 64.6V71.9H203.809V70.9C203.809 70.9 204.009 70.9 204.409 70.9C204.875 70.9 205.109 70.9 205.109 70.9C206.842 70.9 208.309 70.3 209.509 69.1C210.775 67.8333 211.442 66.3333 211.509 64.6H211.809ZM211.809 9.2H211.509C211.442 7.4667 210.775 6 209.509 4.8C208.309 3.5333 206.842 2.9 205.109 2.9C205.109 2.9 204.875 2.9 204.409 2.9C204.009 2.9 203.809 2.9 203.809 2.9V1.9H211.809V9.2ZM217.709 64.6H218.009C218.075 66.3333 218.709 67.8333 219.909 69.1C221.175 70.3 222.675 70.9 224.409 70.9C224.409 70.9 224.609 70.9 225.009 70.9C225.409 70.9 225.642 70.9 225.709 70.9V71.9H217.709V64.6ZM217.709 9.2V1.9H225.709V2.9C225.642 2.9 225.409 2.9 225.009 2.9C224.609 2.9 224.409 2.9 224.409 2.9C222.675 2.9 221.175 3.5333 219.909 4.8C218.709 6 218.075 7.4667 218.009 9.2H217.709ZM259.209 64.6V71.9H251.209V70.9C251.275 70.9 251.509 70.9 251.909 70.9C252.309 70.9 252.509 70.9 252.509 70.9C254.242 70.9 255.742 70.3 257.009 69.1C258.275 67.8333 258.909 66.3333 258.909 64.6H259.209ZM259.209 9.2H258.909C258.909 7.4667 258.275 6 257.009 4.8C255.742 3.5333 254.242 2.9 252.509 2.9C252.509 2.9 252.309 2.9 251.909 2.9C251.509 2.9 251.275 2.9 251.209 2.9V1.9H259.209V9.2ZM265.109 64.6H265.409C265.475 66.3333 266.109 67.8333 267.309 69.1C268.575 70.3 270.075 70.9 271.809 70.9C271.809 70.9 272.009 70.9 272.409 70.9C272.875 70.9 273.109 70.9 273.109 70.9V71.9H265.109V64.6ZM265.109 9.2V1.9H273.109V2.9C273.109 2.9 272.875 2.9 272.409 2.9C272.009 2.9 271.809 2.9 271.809 2.9C270.075 2.9 268.575 3.5333 267.309 4.8C266.109 6 265.475 7.4667 265.409 9.2H265.109ZM340.856 73.3L309.856 2.5H318.356L342.856 63.8L340.856 73.3ZM340.856 73.3L339.956 66.3L366.556 2.2H372.556L345.456 63C345.456 63 345.256 63.4333 344.856 64.3C344.523 65.1 344.09 66.1 343.556 67.3C343.09 68.5 342.656 69.6667 342.256 70.8C341.923 71.9333 341.756 72.7667 341.756 73.3H340.856ZM363.756 9.1C364.49 7.1 364.356 5.5667 363.356 4.5C362.356 3.4333 361.223 2.9 359.956 2.9H359.056V1.9H379.156V2.9C379.156 2.9 378.99 2.9 378.656 2.9C378.39 2.9 378.256 2.9 378.256 2.9C376.79 2.9 375.223 3.4 373.556 4.4C371.89 5.3333 370.523 6.9333 369.456 9.2L363.756 9.1ZM321.056 9.1L312.756 9.2C311.756 6.9333 310.423 5.3333 308.756 4.4C307.09 3.4 305.49 2.9 303.956 2.9C303.956 2.9 303.823 2.9 303.556 2.9C303.29 2.9 303.156 2.9 303.156 2.9V1.9H325.656V2.9H324.756C323.49 2.9 322.356 3.4333 321.356 4.5C320.423 5.5667 320.323 7.1 321.056 9.1ZM398.38 1.9V71.9H391.88V1.9H398.38ZM425.38 68.8V71.9H398.08V68.8H425.38ZM421.08 35.9V38.9H398.08V35.9H421.08ZM425.38 1.9V5H398.08V1.9H425.38ZM431.48 55.7L425.68 71.9H409.08L412.68 68.8C416.213 68.8 419.08 68.2667 421.28 67.2C423.546 66.0667 425.38 64.5 426.78 62.5C428.18 60.5 429.413 58.2333 430.48 55.7H431.48ZM421.08 38.7V45.3H420.08V43.8C420.08 42.4667 419.613 41.3333 418.68 40.4C417.746 39.4 416.613 38.9 415.28 38.9V38.7H421.08ZM421.08 29.5V36.1H415.28V35.9C416.613 35.8333 417.746 35.3333 418.68 34.4C419.613 33.4 420.08 32.2333 420.08 30.9V29.5H421.08ZM425.38 4.7V12.7H424.38V10.9C424.38 9.3 423.813 7.9333 422.68 6.8C421.546 5.6 420.146 4.9667 418.48 4.9V4.7H425.38ZM425.38 0.1V3L413.18 1.9C414.646 1.9 416.18 1.8 417.78 1.6C419.446 1.4 420.98 1.1667 422.38 0.9C423.78 0.6333 424.78 0.3667 425.38 0.1ZM392.18 64.6V71.9H384.18V70.9C384.18 70.9 384.38 70.9 384.78 70.9C385.246 70.9 385.48 70.9 385.48 70.9C387.213 70.9 388.68 70.3 389.88 69.1C391.146 67.8333 391.813 66.3333 391.88 64.6H392.18ZM392.18 9.2H391.88C391.88 7.4667 391.246 6 389.98 4.8C388.713 3.5333 387.213 2.9 385.48 2.9C385.48 2.9 385.28 2.9 384.88 2.9C384.48 2.9 384.28 2.9 384.28 2.9L384.18 1.9H392.18V9.2ZM455.118 1.9V71.9H448.618V1.9H455.118ZM448.918 64.6V71.9H440.918V70.9C440.918 70.9 441.118 70.9 441.518 70.9C441.985 70.9 442.218 70.9 442.218 70.9C443.951 70.9 445.418 70.3 446.618 69.1C447.885 67.8333 448.551 66.3333 448.618 64.6H448.918ZM448.918 9.2H448.618C448.551 7.4667 447.885 6 446.618 4.8C445.418 3.5333 443.951 2.9 442.218 2.9C442.218 2.9 441.985 2.9 441.518 2.9C441.118 2.9 440.918 2.9 440.918 2.9V1.9H448.918V9.2ZM454.818 64.6H455.118C455.185 66.3333 455.818 67.8333 457.018 69.1C458.285 70.3 459.785 70.9 461.518 70.9C461.518 70.9 461.718 70.9 462.118 70.9C462.518 70.9 462.751 70.9 462.818 70.9V71.9H454.818V64.6ZM454.818 9.2V1.9H462.818V2.9C462.751 2.9 462.518 2.9 462.118 2.9C461.718 2.9 461.518 2.9 461.518 2.9C459.785 2.9 458.285 3.5333 457.018 4.8C455.818 6 455.185 7.4667 455.118 9.2H454.818ZM488.907 1.9V71.9H482.407V1.9H488.907ZM515.907 68.8V71.9H488.607V68.8H515.907ZM522.007 55.7L516.207 71.9H499.607L503.207 68.8C506.74 68.8 509.607 68.2667 511.807 67.2C514.074 66.0667 515.907 64.5 517.307 62.5C518.707 60.5 519.94 58.2333 521.007 55.7H522.007ZM482.707 64.6V71.9H474.707V70.9C474.707 70.9 474.907 70.9 475.307 70.9C475.774 70.9 476.007 70.9 476.007 70.9C477.74 70.9 479.207 70.3 480.407 69.1C481.674 67.8333 482.34 66.3333 482.407 64.6H482.707ZM482.707 9.2H482.407C482.34 7.4667 481.674 6 480.407 4.8C479.207 3.5333 477.74 2.9 476.007 2.9C476.007 2.9 475.774 2.9 475.307 2.9C474.907 2.9 474.707 2.9 474.707 2.9V1.9H482.707V9.2ZM488.607 9.2V1.9H496.607V2.9C496.54 2.9 496.307 2.9 495.907 2.9C495.507 2.9 495.307 2.9 495.307 2.9C493.574 2.9 492.074 3.5333 490.807 4.8C489.607 6 488.974 7.4667 488.907 9.2H488.607Z" fill="white"/>
<mask id="mask0_38_7" style="mask-type:luminance" maskUnits="userSpaceOnUse" x="331" y="18" width="22" height="27">
<path d="M353 18.9004H331V44.9004H353V18.9004Z" fill="white"/>
</mask>
<g mask="url(#mask0_38_7)">
<path d="M341.977 44.3597L331.551 32.0378L341.977 19.7158L352.403 32.0378L341.977 44.3597Z" fill="#FFBA00" stroke="white"/>
</g>
</svg>
